<svg xmlns="http://www.w3.org/2000/svg" viewBox="-293 385 24 24" xmlns:v="https://vecta.io/nano"><path d="M-279 388h3.2v1.1l1.8-.6 2.3 2.8-.2 4.7-2.5 1.2-.2-.1-1-1.7h.4l.8.9.5-.6-.4-6.2-.2-.1-1.2.3.3 10.5-.1.1-.8-1.6v5.6l-.8-1.4-.4 5.4-1.4-8.7.7.7.1-.1-.7-4.7-1.4.3.2 8.2.6.6v.2l-4.1-.1-.2-.3.7-.6.3-6.5-2.3.9.2 5 .6.4v.2l-4.4-.3v-.2l.9-.6.2-4.2-2.5-2-.2-.5 1.7-.4v.2l-1.1.7 2.1 1.2-.3-6.9-.7-.5.2-.1 3.7-.1v.2h-.1l-.3.3.1 6.7 2.3-1.3-.3-6.4-.3-.2v-.2h3.5.1l-.6 1v5l1.8-.1.6.3-1.2-7.4h0z" fill="#ff9700"/></svg>